{"title":"From Paris with Love (2010) R5 DVDRip XviD","uid":5392333,"size":734025728,"categoryP":"video","categoryS":"movies","magnet":"?xt=urn:btih:6337d65869bd1d4d90a598b42dc7de3b3153760c&amp;dn=From+Paris+with+Love+%282010%29+R5+DVDRip+XviD&amp;tr=udp%3A%2F%2Ftracker.openbittorrent.com%3A80&amp;tr=udp%3A%2F%2Fopen.demonii.com%3A1337&amp;tr=udp%3A%2F%2Ftracker.coppersurfer.tk%3A6969&amp;tr=udp%3A%2F%2Fexodus.desync.com%3A6969","seeders":0,"leechers":1,"uploader":"saranghae","files":1,"time":1267107890,"description":" &lt;a href=&quot;http://www.imdb.com/title/tt1179034/&quot; rel=&quot;nofollow&quot; target=&quot;_NEW&quot;&gt;http://www.imdb.com/title/tt1179034/&lt;/a&gt;\nFormat                           : AVI\nFormat/Info                      : Audio Video Interleave\nFormat profile                   : OpenDML\nFile size                        : 700 MiB\nDuration                         : 1h 27mn\nOverall bit rate                 : 1 282 Kbps\nWriting application              : VirtualDubMod 1.5.10.2 (build 2542/release)\nWriting library                  : VirtualDubMod build 2542/release\nOriginal source form             : MAX TORRENTZ\nCopyright                        : SIGISMUNT\n\nVideo\nFormat                           : xvid\nCodec ID                         : xvid\nDuration                         : 1h 27mn\nBit rate                         : 1 150 Kbps\nWidth                            : 720 pixels\nHeight                           : 304 pixels\nDisplay aspect ratio             : 2.35:1\nFrame rate                       : 25.000 fps\nResolution                       : 24 bits\nBits/(Pixel*Frame)               : 0.210\nStream size                      : 719 MiB (90%)\n\nAudio\nID                               : 1\nFormat                           : MPEG Audio\nFormat version                   : Version 1\nFormat profile                   : Layer 3\nCodec ID                         : 55\nCodec ID/Hint                    : MP3\nDuration                         : 1h 27mn\nBit rate mode                    : Constant\nBit rate                         : 128 Kbps\nChannel(s)                       : 2 channels\nSampling rate                    : 48.0 KHz\nResolution                       : 16 bits\nStream size                      : 80.0 MiB (10%)\nAlignment                        : Aligned on interleaves\nInterleave, duration             : 667 ms (16.69 video frames)\nInterleave, preload duration     : 216 ms\n\nEncode Note:\n\nOriginal R5 DVDRip videosource , clear MENTiON audio source perfectly synced (-100ms)\n\nsaranghae ","torrent":{"xt":"urn:btih:6337d65869bd1d4d90a598b42dc7de3b3153760c","amp;dn":"From+Paris+with+Love+%282010%29+R5+DVDRip+XviD","amp;tr":["udp%3A%2F%2Ftracker.openbittorrent.com%3A80","udp%3A%2F%2Fopen.demonii.com%3A1337","udp%3A%2F%2Ftracker.coppersurfer.tk%3A6969","udp%3A%2F%2Fexodus.desync.com%3A6969"],"infoHash":"6337d65869bd1d4d90a598b42dc7de3b3153760c","infoHashBuffer":{"type":"Buffer","data":[99,55,214,88,105,189,29,77,144,165,152,180,45,199,222,59,49,83,118,12]},"announce":[],"urlList":[]}}